<?xml version="1.0" standalone="no"?>
<!DOCTYPE svg PUBLIC "-//W3C//DTD SVG 20010904//EN"
 "http://www.w3.org/TR/2001/REC-SVG-20010904/DTD/svg10.dtd">
<svg version="1.0" xmlns="http://www.w3.org/2000/svg"
 width="700.000000pt" height="700.000000pt" viewBox="0 0 700.000000 700.000000"
 preserveAspectRatio="xMidYMid meet">
<metadata>
Created by potrace 1.11, written by Peter Selinger 2001-2013
</metadata>
<g transform="translate(0.000000,700.000000) scale(0.100000,-0.100000)"
fill="#000000" stroke="none">
<path d="M3060 6455 c0 -198 -1 -215 -17 -216 -10 -1 -34 -2 -53 -2 l-35 -2
-1 -1641 -1 -1641 108 1 109 1 2 -220 3 -220 215 0 215 0 3 218 2 217 28 1
c15 1 64 1 110 1 l82 0 0 1643 0 1644 -57 -2 -57 -2 0 218 0 217 -328 0 -328
0 0 -215z"/>
<path d="M3936 6139 c1 -43 4 -85 7 -93 7 -18 67 -27 67 -10 0 16 -58 166 -68
176 -4 4 -6 -29 -6 -73z"/>
<path d="M4026 6003 c3 -10 10 -27 14 -38 5 -11 28 -69 51 -130 61 -159 117
-305 199 -515 39 -102 72 -189 74 -195 2 -11 42 -117 57 -150 5 -11 49 -128
99 -260 50 -132 95 -249 100 -260 5 -11 55 -139 111 -285 55 -146 182 -476
282 -735 99 -258 191 -497 203 -530 49 -130 63 -165 119 -310 31 -82 71 -185
87 -227 16 -43 33 -78 36 -78 17 1 159 246 223 385 80 174 156 422 185 599 25
159 32 271 29 466 -2 118 -6 226 -9 240 -7 28 -13 66 -21 125 -10 74 -56 249
-92 355 -69 202 -147 361 -265 537 -104 156 -256 330 -414 473 -48 43 -228
182 -269 207 -166 101 -221 132 -312 175 -128 60 -231 99 -372 139 -123 34
-122 34 -115 12z"/>
<path d="M1370 2180 c-102 -29 -162 -107 -163 -209 -2 -92 46 -166 131 -202
41 -18 86 -19 883 -19 l839 0 1 -207 c0 -115 1 -333 1 -485 1 -153 -2 -281 -6
-285 -4 -4 -201 -7 -439 -8 -431 0 -432 0 -468 -23 -59 -36 -69 -70 -70 -229
-1 -76 -1 -148 0 -161 l1 -22 1312 2 1312 3 0 161 c-1 148 -3 165 -23 197 -12
19 -39 44 -60 54 -37 18 -64 19 -473 19 l-433 -1 3 489 c1 269 4 491 5 493 2
1 381 3 843 3 793 1 841 2 880 19 110 50 159 181 111 292 -21 48 -88 104 -138
117 -47 12 -4008 14 -4049 2z"/>
</g>
</svg>
