<?xml version="1.0" standalone="no"?>
<!DOCTYPE svg PUBLIC "-//W3C//DTD SVG 20010904//EN"
 "http://www.w3.org/TR/2001/REC-SVG-20010904/DTD/svg10.dtd">
<svg version="1.0" xmlns="http://www.w3.org/2000/svg"
 width="1164.000000pt" height="966.000000pt" viewBox="0 0 1164.000000 966.000000"
 preserveAspectRatio="xMidYMid meet">
<metadata>
Created by potrace 1.15, written by Peter Selinger 2001-2017
</metadata>
<g transform="translate(0.000000,966.000000) scale(0.100000,-0.100000)"
fill="#000000" stroke="none">
<path d="M10 4865 l0 -4755 5815 0 5815 0 0 4755 0 4755 -5815 0 -5815 0 0
-4755z m11530 0 l0 -4655 -5715 0 -5715 0 0 4655 0 4655 5715 0 5715 0 0
-4655z"/>
<path d="M2130 7570 l0 -760 75 0 75 0 0 -75 0 -75 1190 0 1190 0 0 755 0 755
-75 0 -75 0 0 80 0 80 -1190 0 -1190 0 0 -760z m2280 630 l0 -30 -1065 0
-1065 0 0 -630 0 -630 -25 0 -25 0 0 660 0 660 1090 0 1090 0 0 -30z m0 -710
l0 -580 -1015 0 -1015 0 0 580 0 580 1015 0 1015 0 0 -580z m150 -75 l0 -655
-1090 0 -1090 0 0 25 0 25 1065 0 1065 0 0 630 0 630 25 0 25 0 0 -655z"/>
</g>
</svg>
